<svg xmlns="http://www.w3.org/2000/svg" width="410" height="410" viewBox="0 0 410 410" fill="none">
  <style>@import url('https://fonts.googleapis.com/css2?family=Space+Grotesk:wght@400;500;700&amp;display=swap');</style><defs><pattern id="cv-pattern" width="18" height="18" patternUnits="userSpaceOnUse"><circle cx="9" cy="9" r="1.5" fill="#ffffff"/></pattern><clipPath id="cv-clip"><rect width="410" height="410" rx="18"/></clipPath><radialGradient id="g-emuwwazx93" cx="50%" cy="50%" r="50%"><stop offset="0%" stop-color="#5865f2" stop-opacity="1"/><stop offset="100%" stop-color="#5865f2" stop-opacity="0"/></radialGradient><filter id="f-emuwwazx93" x="-50%" y="-50%" width="200%" height="200%"><feGaussianBlur in="SourceGraphic" stdDeviation="12" result="bl"/></filter><radialGradient id="g-emuwwazx95" cx="40%" cy="40%" r="60%"><stop offset="0%" stop-color="#949cf7" stop-opacity="1"/><stop offset="100%" stop-color="#5865f2" stop-opacity="0"/></radialGradient><filter id="f-emuwwazx97" x="-50%" y="-50%" width="200%" height="200%"><feDropShadow dx="0" dy="4" stdDeviation="5" flood-color="#000000" flood-opacity="0.4" result="sh"/></filter><filter id="f-emuwwazxa9" x="-50%" y="-50%" width="200%" height="200%"><feDropShadow dx="0" dy="4" stdDeviation="5" flood-color="#000000" flood-opacity="0.4" result="sh"/></filter><filter id="f-emuwwazxab" x="-50%" y="-50%" width="200%" height="200%"><feDropShadow dx="0" dy="4" stdDeviation="5" flood-color="#000000" flood-opacity="0.4" result="sh"/></filter><filter id="f-emuwwazxad" x="-50%" y="-50%" width="200%" height="200%"><feDropShadow dx="0" dy="4" stdDeviation="5" flood-color="#000000" flood-opacity="0.4" result="sh"/></filter><filter id="f-emuwwazxaf" x="-50%" y="-50%" width="200%" height="200%"><feDropShadow dx="0" dy="4" stdDeviation="5" flood-color="#000000" flood-opacity="0.4" result="sh"/></filter><filter id="cv-mesh" x="-50%" y="-50%" width="200%" height="200%"><feGaussianBlur stdDeviation="60"/></filter></defs>
  <g clip-path="url(#cv-clip)">
  <rect width="410" height="410" fill="#1e1f22"/><g filter="url(#cv-mesh)" opacity="0.45"><ellipse cx="224.94" cy="78.88" rx="93.81" ry="198.01" fill="#5865f2"><animateTransform attributeName="transform" type="translate" values="0 0;0.79 -69.12;0 0" dur="8s" repeatCount="indefinite"/></ellipse><ellipse cx="329.27" cy="234.33" rx="107.49" ry="178.49" fill="#3c2a8a"><animateTransform attributeName="transform" type="translate" values="0 0;34.59 25.82;0 0" dur="11s" repeatCount="indefinite"/></ellipse><ellipse cx="66.12" cy="204.52" rx="93.08" ry="226.15" fill="#1e1f22"><animateTransform attributeName="transform" type="translate" values="0 0;-42.07 9.91;0 0" dur="14s" repeatCount="indefinite"/></ellipse></g><rect width="410" height="410" fill="url(#cv-pattern)" opacity="0.05"/>
  <g transform="translate(24 24)"><text fill="#949cf7"  font-family="ui-monospace, SFMono-Regular, Menlo, Consolas, monospace" font-size="11" font-weight="600" letter-spacing="2" text-anchor="start"><tspan x="0" dy="9.9">DISCORD · 5 AI AGENTS</tspan></text></g>
  <g transform="translate(362 20)"><svg width="24" height="24" viewBox="0 0 24 24"><path d="M6 11h4M8 9v4M15 12h.01M18 10h.01M17.32 5H6.68a4 4 0 0 0-3.978 3.59c-.006.052-.01.101-.017.152C2.604 9.416 2 14.456 2 16a3 3 0 0 0 3 3c1 0 1.5-.5 2-1l1.414-1.414A2 2 0 0 1 9.828 16h4.344a2 2 0 0 1 1.414.586L17 18c.5.5 1 1 2 1a3 3 0 0 0 3-3c0-1.545-.604-6.584-.685-7.258-.007-.05-.011-.1-.017-.151A4 4 0 0 0 17.32 5z" fill="none" stroke="#b5bac1" stroke-opacity="1" stroke-width="1.6" stroke-linecap="round" stroke-linejoin="round"/></svg></g>
  <g transform="translate(113 76)"><g><animateTransform attributeName="transform" type="rotate" from="0 92 92" to="360 92 92" dur="40s" begin="0s" repeatCount="indefinite" additive="sum"/><ellipse cx="92" cy="92" rx="92" ry="92" fill="none" stroke="#ffffff" stroke-width="1" stroke-opacity="0.12" stroke-dasharray="4 4"/></g></g>
  <g transform="translate(159 138)" opacity="0.55" filter="url(#f-emuwwazx93)"><ellipse cx="46" cy="30" rx="46" ry="30" fill="url(#g-emuwwazx93)" /></g>
  <g transform="translate(161 144)"><svg width="88" height="48" viewBox="0 0 100 100" preserveAspectRatio="none" overflow="visible"><path d="M0 50 Q50 -20 100 50 Q50 120 0 50Z" fill="#ffffff" fill-opacity="0.06" stroke="#f2f3f5" stroke-width="2" stroke-opacity="1" vector-effect="non-scaling-stroke" stroke-linecap="round" stroke-linejoin="round"/></svg></g>
  <g transform="translate(190 153)"><g><animateTransform attributeName="transform" type="translate" values="0 0;12 0;0 0" dur="4s" begin="0s" repeatCount="indefinite" calcMode="spline" keySplines="0.4 0 0.2 1;0.4 0 0.2 1" keyTimes="0;0.5;1" additive="sum"/><ellipse cx="15" cy="15" rx="15" ry="15" fill="url(#g-emuwwazx95)" /></g></g>
  <g transform="translate(199 162)"><g><animateTransform attributeName="transform" type="translate" values="0 0;12 0;0 0" dur="4s" begin="0s" repeatCount="indefinite" calcMode="spline" keySplines="0.4 0 0.2 1;0.4 0 0.2 1" keyTimes="0;0.5;1" additive="sum"/><ellipse cx="6" cy="6" rx="6" ry="6" fill="#0b0b12" /></g></g>
  <g transform="translate(184 55)" filter="url(#f-emuwwazx97)"><g><animateTransform attributeName="transform" type="translate" values="0 0;0 -8;0 0" dur="3s" begin="0s" repeatCount="indefinite" calcMode="spline" keySplines="0.4 0 0.2 1;0.4 0 0.2 1" keyTimes="0;0.5;1" additive="sum"/><ellipse cx="21" cy="21" rx="21" ry="21" fill="#5865f2" stroke="#1e1f22" stroke-width="3" stroke-opacity="1"/></g></g>
  <g transform="translate(195 66)"><g><animateTransform attributeName="transform" type="translate" values="0 0;0 -8;0 0" dur="3s" begin="0s" repeatCount="indefinite" calcMode="spline" keySplines="0.4 0 0.2 1;0.4 0 0.2 1" keyTimes="0;0.5;1" additive="sum"/><svg width="20" height="20" viewBox="0 0 24 24"><path d="M16 18l6-6-6-6M8 6l-6 6 6 6" fill="none" stroke="#ffffff" stroke-opacity="1" stroke-width="2" stroke-linecap="round" stroke-linejoin="round"/></svg></g></g>
  <g transform="translate(271.5 118.57)" filter="url(#f-emuwwazxa9)"><g><animateTransform attributeName="transform" type="translate" values="0 0;0 -8;0 0" dur="3s" begin="0.4s" repeatCount="indefinite" calcMode="spline" keySplines="0.4 0 0.2 1;0.4 0 0.2 1" keyTimes="0;0.5;1" additive="sum"/><ellipse cx="21" cy="21" rx="21" ry="21" fill="#23a55a" stroke="#1e1f22" stroke-width="3" stroke-opacity="1"/></g></g>
  <g transform="translate(282.5 129.57)"><g><animateTransform attributeName="transform" type="translate" values="0 0;0 -8;0 0" dur="3s" begin="0.4s" repeatCount="indefinite" calcMode="spline" keySplines="0.4 0 0.2 1;0.4 0 0.2 1" keyTimes="0;0.5;1" additive="sum"/><svg width="20" height="20" viewBox="0 0 24 24"><path d="M6 4h12a2 2 0 0 1 2 2v12a2 2 0 0 1-2 2H6a2 2 0 0 1-2-2V6a2 2 0 0 1 2-2zM9 9h6v6H9zM9 1v3M15 1v3M9 20v3M15 20v3M20 9h3M20 14h3M1 9h3M1 14h3" fill="none" stroke="#ffffff" stroke-opacity="1" stroke-width="2" stroke-linecap="round" stroke-linejoin="round"/></svg></g></g>
  <g transform="translate(238.08 221.43)" filter="url(#f-emuwwazxab)"><g><animateTransform attributeName="transform" type="translate" values="0 0;0 -8;0 0" dur="3s" begin="0.8s" repeatCount="indefinite" calcMode="spline" keySplines="0.4 0 0.2 1;0.4 0 0.2 1" keyTimes="0;0.5;1" additive="sum"/><ellipse cx="21" cy="21" rx="21" ry="21" fill="#eb459e" stroke="#1e1f22" stroke-width="3" stroke-opacity="1"/></g></g>
  <g transform="translate(249.08 232.43)"><g><animateTransform attributeName="transform" type="translate" values="0 0;0 -8;0 0" dur="3s" begin="0.8s" repeatCount="indefinite" calcMode="spline" keySplines="0.4 0 0.2 1;0.4 0 0.2 1" keyTimes="0;0.5;1" additive="sum"/><svg width="20" height="20" viewBox="0 0 24 24"><path d="M12 3l1.9 5.8L20 11l-6.1 2.2L12 19l-1.9-5.8L4 11l6.1-2.2z" fill="none" stroke="#ffffff" stroke-opacity="1" stroke-width="2" stroke-linecap="round" stroke-linejoin="round"/></svg></g></g>
  <g transform="translate(129.92 221.43)" filter="url(#f-emuwwazxad)"><g><animateTransform attributeName="transform" type="translate" values="0 0;0 -8;0 0" dur="3s" begin="1.2000000000000002s" repeatCount="indefinite" calcMode="spline" keySplines="0.4 0 0.2 1;0.4 0 0.2 1" keyTimes="0;0.5;1" additive="sum"/><ellipse cx="21" cy="21" rx="21" ry="21" fill="#f0b232" stroke="#1e1f22" stroke-width="3" stroke-opacity="1"/></g></g>
  <g transform="translate(140.92 232.43)"><g><animateTransform attributeName="transform" type="translate" values="0 0;0 -8;0 0" dur="3s" begin="1.2000000000000002s" repeatCount="indefinite" calcMode="spline" keySplines="0.4 0 0.2 1;0.4 0 0.2 1" keyTimes="0;0.5;1" additive="sum"/><svg width="20" height="20" viewBox="0 0 24 24"><path d="M4 19.5A2.5 2.5 0 0 1 6.5 17H20V2H6.5A2.5 2.5 0 0 0 4 4.5v15zM20 17v5H6.5A2.5 2.5 0 0 1 4 19.5" fill="none" stroke="#ffffff" stroke-opacity="1" stroke-width="2" stroke-linecap="round" stroke-linejoin="round"/></svg></g></g>
  <g transform="translate(96.5 118.57)" filter="url(#f-emuwwazxaf)"><g><animateTransform attributeName="transform" type="translate" values="0 0;0 -8;0 0" dur="3s" begin="1.6s" repeatCount="indefinite" calcMode="spline" keySplines="0.4 0 0.2 1;0.4 0 0.2 1" keyTimes="0;0.5;1" additive="sum"/><ellipse cx="21" cy="21" rx="21" ry="21" fill="#00a8fc" stroke="#1e1f22" stroke-width="3" stroke-opacity="1"/></g></g>
  <g transform="translate(107.5 129.57)"><g><animateTransform attributeName="transform" type="translate" values="0 0;0 -8;0 0" dur="3s" begin="1.6s" repeatCount="indefinite" calcMode="spline" keySplines="0.4 0 0.2 1;0.4 0 0.2 1" keyTimes="0;0.5;1" additive="sum"/><svg width="20" height="20" viewBox="0 0 24 24"><path d="M12 2L2 7l10 5 10-5-10-5zM2 17l10 5 10-5M2 12l10 5 10-5" fill="none" stroke="#ffffff" stroke-opacity="1" stroke-width="2" stroke-linecap="round" stroke-linejoin="round"/></svg></g></g>
  <g transform="translate(24 284)"><g opacity="0"><animateTransform attributeName="transform" type="translate" values="0 24;0 0" dur="0.7s" begin="0s" fill="freeze" calcMode="spline" keySplines="0.2 0.8 0.2 1" keyTimes="0;1" additive="sum"/><animate attributeName="opacity" values="0;1" dur="0.7s" begin="0s" fill="freeze" calcMode="spline" keySplines="0.2 0.8 0.2 1" keyTimes="0;1"/><text fill="#f2f3f5"  font-family="'Space Grotesk', sans-serif" font-size="38" font-weight="700" letter-spacing="4" text-anchor="start"><tspan x="0" dy="34.2">ARGUS</tspan></text></g></g>
  <g transform="translate(24 330)"><text fill="#b5bac1"  font-family="-apple-system, 'Segoe UI', Helvetica, Arial, sans-serif" font-size="13.5" font-weight="400" letter-spacing="0" text-anchor="start"><tspan x="0" dy="12.15">One Discord bot, five agents that discuss together.</tspan></text></g>
  <g transform="translate(24 360)"><rect width="168" height="28" rx="6" fill="#2b2d31" stroke="#ffffff" stroke-width="1" stroke-opacity="0.08"/></g>
  <g transform="translate(36 367)"><clipPath id="type-emuwwazxak"><rect height="28.75" width="0"><animate attributeName="width" from="0" to="164" dur="1.2s" begin="0.6s" fill="freeze" calcMode="discrete" values="0;10.25;20.5;30.75;41;51.25;61.5;71.75;82;92.25;102.5;112.75;123;133.25;143.5;153.75;164"/></rect></clipPath><text fill="#949cf7"  font-family="ui-monospace, SFMono-Regular, Menlo, Consolas, monospace" font-size="12.5" font-weight="500" letter-spacing="0" text-anchor="start" clip-path="url(#type-emuwwazxak)"><tspan x="0" dy="11.25">!discuss &lt;topic&gt;</tspan></text></g>
  <g transform="translate(206 367)"><text fill="#80848e"  font-family="ui-monospace, SFMono-Regular, Menlo, Consolas, monospace" font-size="11" font-weight="400" letter-spacing="0" text-anchor="end"><tspan x="180" dy="9.9">OpenRouter · Claude</tspan></text></g>
  
  </g>
  <rect x="0.5" y="0.5" width="409" height="409" rx="17.5" fill="none" stroke="#ffffff" stroke-opacity="0.08" stroke-width="1"/>
</svg>